 <svg version="1.0" xmlns="http://www.w3.org/2000/svg" width="700.000000pt" height="700.000000pt" viewBox="0 0 700.000000 700.000000" preserveAspectRatio="xMidYMid meet">
<metadata>
Created by potrace 1.12, written by Peter Selinger 2001-2015
</metadata>
<g transform="translate(0.000000,700.000000) scale(0.100000,-0.100000)" fill="#00f2f2" stroke="none">
<path d="M2203 6614 c-44 -22 -69 -76 -52 -115 22 -55 101 -77 139 -39 15 15
20 33 20 75 0 85 -37 113 -107 79z"></path>
<path d="M4784 6566 c-26 -68 94 -165 170 -137 38 15 61 56 48 86 -18 39 -55
56 -136 62 -64 5 -76 3 -82 -11z"></path>
<path d="M1533 6405 c-38 -16 -63 -60 -63 -111 l0 -36 57 4 c48 4 61 10 85 37
32 35 37 81 12 105 -19 19 -49 20 -91 1z"></path>
<path d="M2634 6331 c-171 -7 -199 -17 -209 -75 -13 -65 51 -166 104 -166 13
0 54 12 90 26 78 32 157 35 196 10 14 -9 39 -44 55 -77 39 -81 46 -88 110
-116 71 -32 88 -47 115 -109 27 -62 59 -88 133 -109 103 -30 120 -66 97 -207
-7 -46 -16 -132 -20 -193 -10 -172 -32 -228 -103 -264 -32 -17 -122 -18 -132
-1 -4 7 -14 74 -21 149 -15 157 -34 206 -89 233 -55 26 -181 39 -324 32 -168
-7 -185 0 -237 106 -19 40 -43 76 -52 81 -9 5 -78 14 -154 20 -76 6 -151 14
-167 18 -49 12 -65 45 -76 161 -13 128 -26 172 -57 202 -36 33 -71 16 -108
-53 -46 -85 -71 -115 -147 -177 -116 -94 -140 -110 -208 -137 -72 -29 -111
-61 -142 -117 -15 -26 -37 -45 -75 -63 -62 -29 -83 -59 -113 -158 -17 -56 -32
-80 -81 -133 -32 -35 -59 -68 -59 -75 0 -6 29 -38 64 -71 53 -49 70 -72 91
-128 15 -38 35 -80 46 -94 43 -55 223 -82 282 -42 29 20 53 59 68 109 10 36
-6 290 -21 317 -6 12 -31 30 -54 40 -75 32 -114 106 -82 155 39 59 130 15 157
-74 15 -52 36 -66 114 -80 67 -12 102 -34 126 -77 15 -26 16 -74 10 -484 -7
-514 -6 -509 -79 -531 -57 -17 -99 5 -146 75 -37 56 -77 86 -115 86 -29 0 -68
-38 -99 -95 -50 -91 -138 -122 -200 -70 -38 31 -52 88 -52 202 0 110 -15 141
-95 203 -33 26 -70 61 -82 79 -22 33 -25 44 -41 209 -7 75 -14 97 -32 117 -31
33 -79 33 -117 1 l-28 -24 2 -241 c1 -174 6 -249 15 -269 9 -18 36 -39 83 -62
83 -43 116 -87 139 -193 32 -140 82 -198 211 -247 52 -20 87 -24 275 -30 248
-9 277 -16 308 -77 35 -69 74 -206 67 -240 -7 -40 -72 -100 -118 -108 -56 -11
-92 14 -117 82 -31 83 -55 119 -94 137 -48 23 -77 21 -297 -19 -191 -35 -272
-61 -292 -96 -17 -27 1 -68 42 -94 47 -32 81 -42 203 -60 178 -27 228 -63 228
-165 0 -98 10 -109 138 -159 29 -12 81 -39 115 -62 68 -45 60 -44 235 -19 46
7 134 11 196 9 122 -4 156 -17 178 -65 15 -33 -12 -70 -78 -104 -113 -58 -139
-93 -131 -173 3 -41 10 -56 36 -79 38 -34 66 -35 153 -8 124 39 207 20 243
-56 15 -32 17 -52 11 -136 -10 -150 12 -206 98 -247 50 -23 70 -48 81 -101 11
-50 37 -98 84 -152 23 -25 41 -55 41 -66 0 -11 -19 -56 -41 -100 -37 -71 -42
-88 -46 -169 -8 -125 2 -180 37 -215 21 -20 38 -28 65 -28 40 0 67 23 129 110
17 25 54 60 81 77 75 50 88 82 83 219 -4 139 -15 160 -104 186 -70 20 -99 50
-109 110 -15 87 -36 106 -137 123 -53 8 -68 28 -68 86 0 98 62 168 138 155 46
-7 79 -39 108 -103 25 -57 50 -78 107 -94 56 -15 98 -58 127 -130 25 -62 27
-64 87 -89 108 -44 123 -71 123 -218 0 -115 -11 -187 -47 -297 -29 -90 -42
-109 -94 -135 -47 -25 -95 -80 -109 -127 -9 -31 -9 -51 4 -100 45 -172 -13
-267 -159 -261 l-60 3 -18 75 c-20 85 -49 120 -98 120 -37 0 -89 -48 -89 -82
0 -30 32 -83 62 -102 13 -8 43 -20 66 -27 28 -8 47 -20 52 -33 13 -37 33 -404
26 -489 -9 -106 -38 -172 -97 -217 -58 -45 -109 -92 -109 -102 0 -4 108 -8
240 -8 205 0 240 2 240 15 0 8 -13 50 -29 93 -37 102 -45 158 -30 216 17 66
55 101 141 127 71 21 93 37 146 108 39 52 120 58 165 12 21 -20 33 -94 23
-135 -5 -21 -17 -29 -64 -42 -84 -24 -92 -34 -92 -115 0 -76 6 -99 26 -99 21
0 81 65 129 140 28 44 52 69 68 74 26 6 42 36 52 97 12 64 37 92 118 131 85
41 112 72 112 129 0 50 -23 73 -107 105 -79 30 -108 64 -108 127 0 48 28 278
40 332 14 59 12 140 -5 204 -8 31 -26 135 -40 231 -48 318 -60 345 -195 420
-72 40 -93 57 -135 115 -27 37 -78 98 -111 135 -34 37 -74 87 -89 111 -63 101
-103 127 -250 158 -55 12 -113 30 -130 39 -16 10 -50 47 -75 82 -26 36 -66 79
-91 97 -116 85 -124 96 -135 204 -5 51 -2 81 15 142 20 71 21 79 7 109 -16 34
-114 107 -171 128 -16 7 -79 25 -138 40 -168 45 -180 58 -191 214 -5 71 -16
122 -37 180 -16 44 -29 90 -29 103 0 70 83 130 167 120 53 -6 91 -38 132 -113
38 -69 70 -89 140 -88 45 1 70 7 104 27 62 37 65 53 22 123 -60 101 -76 155
-81 289 -5 103 -3 130 16 190 42 139 43 144 20 245 -26 115 -42 151 -87 190
-44 39 -86 38 -116 -2 -19 -26 -20 -40 -18 -252 2 -245 -5 -294 -47 -338 -63
-67 -147 -53 -190 32 -22 44 -23 52 -20 275 l3 230 38 79 c20 43 37 90 37 105
0 16 -19 53 -48 93 -51 69 -64 96 -82 165 -6 23 -26 60 -45 83 -44 53 -48 101
-9 127 33 21 51 11 83 -46 25 -45 50 -60 143 -86 71 -19 110 -57 139 -135 11
-32 32 -69 45 -81 22 -20 29 -21 91 -13 37 4 100 8 138 8 89 1 117 -17 169
-113 53 -95 79 -107 245 -114 86 -4 128 -9 137 -19 17 -17 44 -256 47 -415 2
-111 2 -112 -28 -143 -36 -38 -78 -57 -135 -62 -48 -3 -55 4 -65 64 -11 72
-95 139 -149 118 -53 -20 -62 -92 -18 -141 23 -26 39 -32 100 -42 l72 -11 0
-59 c0 -102 -43 -162 -140 -195 -79 -28 -146 -60 -164 -81 -16 -17 -15 -20 13
-44 17 -14 66 -37 111 -52 103 -34 140 -69 140 -129 0 -50 -19 -70 -93 -106
-67 -31 -87 -67 -87 -156 0 -57 4 -77 20 -97 25 -32 73 -42 128 -27 56 14 87
43 125 115 23 41 50 73 92 105 44 34 70 65 98 115 21 38 44 77 53 86 8 9 55
33 104 53 149 62 169 102 100 194 -104 140 -66 260 81 256 89 -3 121 -33 154
-149 12 -44 28 -71 59 -102 92 -91 170 -60 212 85 19 65 15 241 -6 284 -7 16
-35 42 -62 59 -64 42 -83 68 -110 153 -19 59 -32 80 -80 128 -34 33 -58 66
-58 78 0 32 27 89 60 126 87 99 88 188 8 527 -33 143 -51 172 -120 202 -72 31
-97 54 -127 113 -33 64 -65 97 -132 135 -47 27 -59 45 -79 126 -13 51 -41 80
-130 136 -35 22 -75 48 -89 57 -34 22 -119 27 -307 19z m850 -1553 c20 -28 20
-68 2 -113 -17 -40 -45 -57 -94 -57 -90 0 -113 133 -31 178 13 7 43 13 66 14
32 0 45 -5 57 -22z m-61 -3462 c85 -35 115 -134 60 -196 -55 -61 -149 -45
-189 32 -10 19 -18 56 -18 86 -1 45 3 57 23 73 27 22 78 25 124 5z"></path>
<path d="M4095 6247 c-67 -23 -104 -46 -120 -77 -30 -58 -13 -105 59 -164 35
-29 57 -61 97 -142 58 -116 79 -137 167 -163 41 -12 60 -24 69 -42 6 -13 15
-81 19 -150 6 -113 5 -129 -14 -171 -22 -50 -61 -78 -109 -78 -39 0 -69 23
-109 86 -57 89 -114 106 -170 50 l-34 -34 6 -203 c3 -112 10 -218 15 -235 12
-41 35 -61 112 -98 91 -45 91 -48 95 -320 3 -277 4 -279 129 -354 26 -16 54
-48 83 -94 61 -99 79 -108 220 -108 98 0 127 -4 195 -27 71 -24 96 -27 217
-27 158 -1 154 1 202 -98 35 -70 81 -108 131 -108 69 0 117 79 96 158 -6 20
-33 70 -61 111 -27 41 -50 80 -50 87 0 23 49 72 89 87 21 9 79 23 127 32 49
10 95 22 102 27 6 6 12 28 12 50 0 34 -6 46 -39 77 -21 20 -60 50 -86 66 -81
50 -89 68 -96 208 -6 129 -20 172 -71 227 -51 55 -68 84 -68 116 0 28 6 38 38
58 108 68 131 167 50 216 -41 25 -69 25 -98 2 -17 -14 -24 -34 -31 -97 -10
-93 -20 -105 -90 -105 -118 0 -187 77 -159 180 12 46 29 58 125 85 l70 20 35
69 c52 104 64 110 233 117 78 4 143 7 144 8 22 16 33 40 33 73 0 69 -37 94
-229 158 -99 33 -173 64 -188 78 -25 23 -25 26 -19 111 8 102 -6 153 -48 172
-38 17 -72 -10 -105 -84 -35 -77 -54 -95 -127 -114 -87 -22 -109 -37 -154
-103 -52 -76 -73 -90 -135 -90 -84 0 -229 20 -242 33 -15 15 -57 214 -72 346
-18 148 -46 183 -144 188 -34 1 -80 -3 -102 -10z m431 -1246 c29 -18 43 -40
77 -123 28 -68 62 -78 222 -64 83 7 93 6 134 -16 64 -33 81 -74 91 -207 10
-131 22 -157 96 -212 93 -68 120 -144 70 -194 -28 -28 -119 -41 -233 -32 -136
10 -170 50 -184 213 -4 58 -13 121 -19 139 -12 35 -61 85 -84 85 -29 0 -66
-43 -83 -97 -33 -105 -105 -154 -172 -117 -95 51 -97 162 -7 283 14 19 26 44
26 54 0 12 -34 52 -80 96 -92 88 -100 114 -51 160 54 50 144 65 197 32z"></path>
<path d="M1372 6203 c-81 -40 -84 -175 -5 -198 16 -4 29 1 47 18 42 42 45 198
4 197 -7 0 -28 -8 -46 -17z"></path>
<path d="M2493 5927 c-50 -22 -83 -156 -47 -191 9 -9 32 -16 55 -16 31 0 47 7
70 29 35 35 37 68 9 126 -24 49 -54 67 -87 52z"></path>
<path d="M898 5900 c-25 -17 -71 -64 -103 -105 -58 -76 -85 -140 -85 -203 0
-19 -8 -56 -17 -81 -9 -26 -14 -55 -10 -65 10 -27 43 -3 58 41 37 117 93 189
179 233 30 15 66 40 80 55 48 51 24 155 -35 155 -12 0 -42 -14 -67 -30z"></path>
<path d="M6242 5658 c-28 -14 -35 -42 -30 -123 4 -68 25 -105 59 -105 39 0
119 97 119 144 0 31 -24 66 -55 81 -38 17 -61 18 -93 3z"></path>
<path d="M5726 5425 c-24 -24 -27 -66 -24 -295 3 -245 10 -270 82 -321 23 -15
49 -34 59 -41 22 -16 54 -109 69 -203 13 -84 37 -135 75 -161 24 -16 46 -19
153 -19 80 0 133 5 147 13 30 16 37 66 20 124 -19 62 -190 248 -251 273 -94
39 -106 45 -120 67 -8 13 -22 70 -32 128 -16 101 -15 137 2 297 9 80 0 109
-39 133 -39 24 -119 27 -141 5z"></path>
<path d="M6987 4833 c-3 -10 -8 -31 -11 -46 -9 -39 -81 -114 -137 -143 -56
-28 -89 -67 -89 -103 0 -43 59 -129 157 -231 l93 -95 0 318 c0 174 -2 317 -4
317 -3 0 -7 -8 -9 -17z"></path>
<path d="M0 4480 c0 -45 3 -61 13 -58 20 7 32 55 21 85 -18 52 -34 39 -34 -27z"></path>
<path d="M6391 4337 c-16 -8 -33 -33 -48 -71 -47 -122 -72 -131 -323 -118
-191 10 -266 7 -287 -10 -20 -16 -16 -108 6 -148 37 -70 50 -73 265 -81 267
-9 290 -18 382 -150 31 -44 64 -84 75 -90 26 -13 54 3 76 44 16 29 18 59 15
292 -1 152 -7 271 -13 287 -19 47 -97 71 -148 45z"></path>
<path d="M511 4327 c-63 -32 -82 -107 -62 -249 22 -150 57 -229 96 -214 23 8
34 46 62 204 27 156 26 219 -8 253 -22 22 -53 24 -88 6z"></path>
<path d="M0 4064 l0 -156 33 7 c51 12 85 33 102 65 42 81 -10 192 -109 230
l-26 10 0 -156z"></path>
<path d="M6933 4028 c-85 -72 -94 -87 -96 -159 -2 -56 0 -62 30 -89 29 -26
115 -51 129 -38 2 3 3 80 2 172 l-3 167 -62 -53z"></path>
<path d="M4745 3725 c-44 -7 -123 -17 -174 -23 -121 -14 -214 -56 -238 -108
-16 -32 -16 -36 4 -62 35 -47 81 -70 197 -97 173 -40 196 -60 221 -189 22
-119 43 -135 216 -166 74 -13 156 -20 239 -20 147 0 217 -11 280 -43 66 -34
71 -60 31 -141 -37 -75 -44 -150 -17 -191 9 -13 44 -39 78 -57 45 -24 77 -51
114 -98 29 -35 73 -76 99 -91 63 -36 102 -76 116 -118 14 -42 6 -289 -10 -320
-15 -27 -63 -38 -206 -46 -141 -7 -184 -17 -238 -53 -83 -56 -95 -62 -111 -56
-51 20 -64 183 -27 332 27 103 26 131 -2 173 -40 60 -105 69 -417 55 -231 -10
-264 -25 -315 -144 -20 -47 -40 -62 -80 -62 -46 0 -84 29 -135 105 -55 82 -80
103 -131 111 -25 4 -41 0 -62 -16 -25 -20 -27 -27 -27 -88 0 -84 25 -216 48
-256 10 -17 45 -47 78 -67 98 -59 127 -126 84 -196 -33 -55 -70 -67 -203 -68
l-119 0 -28 -32 c-36 -40 -60 -116 -67 -211 -5 -66 -3 -75 21 -112 37 -57 76
-74 150 -67 83 8 218 27 233 32 6 2 17 30 23 62 16 75 60 123 115 123 71 0 99
-35 111 -138 l6 -61 55 -7 c71 -9 112 -38 145 -103 38 -73 44 -79 102 -96 100
-29 137 -70 175 -191 8 -23 24 -54 36 -70 29 -37 71 -36 184 6 113 41 120 46
137 86 17 40 8 92 -31 175 -31 68 -31 107 -1 167 13 26 36 76 50 112 41 100
74 127 179 145 40 6 39 6 72 98 20 55 60 87 113 87 46 0 69 -28 77 -95 10 -75
25 -89 89 -81 71 8 97 31 121 104 11 34 27 68 36 77 8 8 41 20 73 25 80 13
106 31 106 76 0 64 -39 97 -147 124 -24 6 -47 19 -53 30 -13 24 -13 284 0 332
23 81 108 127 176 95 25 -13 42 -34 69 -87 43 -86 77 -110 153 -110 69 0 92
12 92 51 0 36 -19 74 -77 156 -28 39 -55 96 -73 149 -43 132 -58 146 -163 159
-37 5 -59 16 -100 51 -29 24 -76 63 -106 87 -157 123 -195 182 -195 307 -1 64
4 84 29 135 25 50 39 65 84 90 69 38 93 71 99 134 10 105 -27 171 -95 171 -56
0 -97 -49 -112 -133 -6 -37 -17 -79 -23 -92 -23 -50 -80 -45 -202 18 l-81 42
-130 -5 c-230 -8 -308 -6 -339 10 -17 8 -50 44 -75 79 -63 87 -100 111 -171
110 -30 -1 -91 -7 -135 -14z m-35 -1645 c0 -5 -4 -10 -10 -10 -5 0 -10 5 -10
10 0 6 5 10 10 10 6 0 10 -4 10 -10z m1354 -172 c36 -52 1 -115 -58 -104 -36
7 -56 30 -56 63 0 56 83 85 114 41z m-1106 -204 c12 -8 33 -37 46 -63 31 -59
39 -66 106 -81 113 -26 150 -65 150 -161 0 -45 -4 -60 -24 -78 -34 -32 -84
-37 -139 -13 -51 23 -76 61 -97 149 -14 61 -23 70 -103 103 -101 42 -122 99
-54 141 39 23 85 24 115 3z"></path>
<path d="M6947 3026 c-55 -20 -67 -34 -67 -77 0 -43 41 -99 91 -125 l29 -15 0
116 c0 63 -3 115 -7 115 -5 -1 -25 -7 -46 -14z"></path>
<path d="M1550 2890 c-93 -37 -110 -40 -251 -48 -109 -7 -114 -8 -117 -30 -3
-17 13 -39 60 -85 112 -112 195 -144 324 -126 86 12 132 35 156 79 21 40 23
78 7 135 -12 41 -67 105 -90 105 -8 -1 -48 -14 -89 -30z"></path>
<path d="M4643 2900 c-114 -27 -134 -137 -37 -202 48 -32 307 -108 368 -108
61 0 165 19 197 36 57 29 76 111 39 172 -31 50 -71 62 -207 61 -96 0 -136 4
-217 25 -54 14 -101 26 -105 25 -3 -1 -21 -4 -38 -9z"></path>
<path d="M0 2725 c0 -96 3 -175 7 -175 17 0 75 55 97 93 32 57 39 90 26 137
-14 50 -45 85 -92 105 l-38 15 0 -175z"></path>
<path d="M6968 2573 c-13 -16 -46 -66 -73 -113 -26 -47 -71 -119 -99 -160 -64
-96 -75 -128 -76 -220 0 -85 12 -138 39 -171 18 -22 39 -27 184 -45 l57 -7 0
372 c0 204 -1 371 -3 371 -2 0 -15 -12 -29 -27z"></path>
<path d="M598 2483 c-73 -78 -71 -153 6 -247 20 -23 45 -64 57 -90 19 -44 20
-59 14 -181 l-7 -134 25 -25 c25 -25 45 -31 92 -27 31 3 75 57 77 94 4 90 -25
420 -42 488 -15 56 -51 100 -100 125 -60 31 -91 30 -122 -3z"></path>
<path d="M0 2281 l0 -204 47 6 c74 8 87 31 80 138 -7 105 -32 171 -88 225
l-39 38 0 -203z"></path>
<path d="M1660 2419 c-58 -10 -133 -26 -168 -35 -59 -16 -68 -16 -152 0 -104
20 -156 12 -189 -31 -36 -45 -23 -120 29 -160 8 -7 41 -22 72 -33 65 -25 85
-44 94 -87 9 -43 -26 -77 -101 -98 -84 -24 -121 -65 -164 -185 -47 -133 -49
-153 -13 -241 16 -41 37 -100 46 -132 12 -42 28 -69 58 -97 22 -22 44 -40 48
-40 5 0 29 -31 54 -70 26 -39 59 -76 76 -85 64 -33 152 16 165 92 9 55 -11
210 -32 245 -10 17 -45 47 -77 67 -104 64 -120 139 -55 262 35 66 59 85 87 70
9 -5 74 -68 144 -139 88 -92 134 -148 154 -189 l29 -58 1 -305 c1 -339 9 -413
49 -447 21 -18 30 -20 53 -12 72 25 101 163 86 404 -19 286 7 457 78 528 34
34 60 30 101 -16 64 -73 88 -249 68 -484 -11 -121 -11 -144 2 -176 25 -58 98
-84 145 -51 52 36 54 52 47 368 -3 160 -2 350 3 421 9 115 8 135 -8 171 -26
62 -68 77 -205 77 -147 -1 -185 -16 -226 -89 -38 -66 -50 -76 -95 -77 -29 -1
-42 5 -61 28 -23 26 -25 35 -20 91 5 70 36 145 90 220 50 69 67 114 67 174 0
65 -22 108 -65 126 -43 18 -84 17 -215 -7z"></path>
<path d="M212 2038 c6 -18 28 -21 28 -4 0 9 -7 16 -16 16 -9 0 -14 -5 -12 -12z"></path>
<path d="M6458 1659 c-10 -5 -20 -25 -24 -44 -15 -81 66 -116 127 -56 53 53
28 111 -47 111 -21 0 -47 -5 -56 -11z"></path>
<path d="M410 1605 c-17 -20 -5 -49 36 -84 38 -34 94 -66 94 -54 0 44 -23 130
-37 141 -23 16 -78 15 -93 -3z"></path>
<path d="M5728 1534 c-26 -8 -32 -48 -19 -110 22 -96 93 -143 140 -92 33 34
49 164 25 188 -13 13 -118 22 -146 14z"></path>
<path d="M555 1410 c15 -52 38 -91 71 -120 28 -24 44 -30 81 -30 42 0 44 1 32
18 -34 45 -57 66 -94 84 -22 11 -53 32 -69 47 l-28 26 7 -25z"></path>
<path d="M6270 1351 c0 -11 4 -22 9 -25 12 -8 34 21 26 34 -11 17 -35 11 -35
-9z"></path>
<path d="M4395 1306 c-17 -12 -21 -30 -25 -105 -3 -50 -8 -93 -11 -96 -3 -3
-33 -12 -65 -20 -108 -28 -137 -91 -117 -253 9 -73 14 -87 42 -116 18 -18 50
-39 71 -46 51 -17 74 -42 100 -112 25 -67 59 -98 107 -98 49 0 67 13 87 62 41
100 49 111 111 142 85 44 95 67 95 228 0 74 -5 138 -11 152 -14 29 -55 46
-113 46 -23 0 -46 4 -53 8 -8 5 -13 44 -15 112 l-3 105 -90 3 c-67 2 -95 -1
-110 -12z m193 -309 c4 -132 -29 -248 -79 -276 -22 -12 -29 -12 -54 0 -42 20
-73 129 -74 261 -1 113 -8 107 119 105 l85 -2 3 -88z"></path>
<path d="M720 1060 c-13 -13 -20 -33 -20 -56 0 -30 8 -44 54 -88 29 -29 74
-81 100 -117 52 -71 105 -109 152 -109 50 0 68 30 72 116 6 102 0 120 -51 145
-23 12 -63 36 -89 55 -106 75 -179 93 -218 54z"></path>
<path d="M5966 954 c-55 -52 -57 -56 -41 -73 52 -58 175 -9 175 70 0 29 -31
59 -60 59 -8 -1 -41 -26 -74 -56z"></path>
<path d="M1305 756 c-25 -25 -55 -111 -55 -157 0 -36 21 -42 88 -28 76 15 102
43 102 109 0 41 -5 56 -25 75 -32 33 -78 33 -110 1z"></path>
<path d="M5604 761 c-31 -14 -47 -30 -63 -63 -11 -24 -21 -51 -21 -59 0 -8
-11 -34 -25 -58 -50 -86 -29 -106 92 -91 72 9 100 24 139 76 22 29 29 50 32
100 6 86 -12 114 -71 114 -23 0 -60 -9 -83 -19z"></path>
<path d="M2264 615 c-34 -23 -53 -76 -59 -166 -4 -46 -11 -96 -17 -111 -12
-32 -69 -61 -163 -82 -38 -9 -81 -24 -95 -34 -29 -21 -86 -131 -96 -185 l-6
-37 290 0 291 0 -10 27 c-5 16 -25 55 -44 88 -91 156 -92 171 -8 266 72 84
100 140 87 176 -20 59 -121 93 -170 58z"></path>
<path d="M3728 344 c-16 -15 -7 -42 42 -120 64 -104 76 -116 100 -87 43 54 29
142 -31 186 -28 20 -99 34 -111 21z"></path>
<path d="M4865 301 c-22 -10 -51 -31 -65 -46 -30 -33 -144 -111 -217 -150 -61
-31 -102 -31 -198 5 -69 25 -162 30 -217 11 -40 -13 -72 -50 -83 -94 l-7 -27
398 2 399 3 3 60 c3 58 5 62 52 106 58 53 64 86 25 124 -29 30 -38 30 -90 6z"></path>
</g>
</svg>
